/* XPM */
static const char * smiley_xpm[] = {
"16 16 129 2",
"  	c None",
". 	c #F2B53A",
"+ 	c #F6CD73",
"@ 	c #F8D892",
"# 	c #F7CE73",
"$ 	c #F3B73A",
"% 	c #F6CF7B",
"& 	c #FEF6D7",
"* 	c #FFFCEF",
"= 	c #FFFEF5",
"- 	c #FFFEF6",
"; 	c #FEF6D8",
"> 	c #F7D17C",
", 	c #F7D282",
"' 	c #FEF3C3",
") 	c #FFF5C4",
"! 	c #FFF8D3",
"~ 	c #FFFBE0",
"{ 	c #FFF8D4",
"] 	c #FFF5C5",
"^ 	c #FEF4C4",
"/ 	c #F8D482",
"( 	c #F1B850",
"_ 	c #FEF1C0",
": 	c #FEEE9E",
"< 	c #FFF0A6",
"[ 	c #FFF5BB",
"} 	c #FFF7C7",
"| 	c #FFF5BC",
"1 	c #FFF1A8",
"2 	c #FEF2C1",
"3 	c #F3BB51",
"4 	c #F9D06C",
"5 	c #FEF0B4",
"6 	c #FEE97D",
"7 	c #FBE989",
"8 	c #6F634A",
"9 	c #EDE19D",
"0 	c #FBE98A",
"a 	c #FEE97E",
"b 	c #FAD26E",
"c 	c #EA9F1F",
"d 	c #F9CD43",
"e 	c #FDDB4A",
"f 	c #FEE14E",
"g 	c #FBE367",
"h 	c #4A3C1E",
"i 	c #EBDA7B",
"j 	c #EBD97B",
"k 	c #FBE368",
"l 	c #FEE150",
"m 	c #FDDC4A",
"n 	c #FACF43",
"o 	c #ECA220",
"p 	c #E99C1A",
"q 	c #F8C523",
"r 	c #FCD220",
"s 	c #FED927",
"t 	c #FEDE3D",
"u 	c #FEE563",
"v 	c #FEE356",
"w 	c #FEE564",
"x 	c #FEDF3F",
"y 	c #FEDA28",
"z 	c #F9C723",
"A 	c #EB9F1B",
"B 	c #E69918",
"C 	c #F8BF20",
"D 	c #F2C618",
"E 	c #BF9E10",
"F 	c #FED81A",
"G 	c #FEDA26",
"H 	c #FEDC2D",
"I 	c #FEDA27",
"J 	c #FED81B",
"K 	c #C1A010",
"L 	c #F0C518",
"M 	c #F8C11F",
"N 	c #E89C19",
"O 	c #E09615",
"P 	c #F5B426",
"Q 	c #FACB1C",
"R 	c #C2A01A",
"S 	c #88700F",
"T 	c #DEBA13",
"U 	c #FED718",
"V 	c #E0BB13",
"W 	c #897110",
"X 	c #C2A11A",
"Y 	c #F6B726",
"Z 	c #E29816",
"` 	c #EDA52D",
" .	c #F8C428",
"..	c #FACC1B",
"+.	c #DEBA31",
"@.	c #886536",
"#.	c #6E3E2A",
"$.	c #6E3D29",
"%.	c #876436",
"&.	c #DEB92F",
"*.	c #F8C528",
"=.	c #EFA72E",
"-.	c #DA941D",
";.	c #F5B94B",
">.	c #F9C730",
",.	c #FACB1E",
"'.	c #FACD1C",
").	c #FBD026",
"!.	c #FBD027",
"~.	c #F9C830",
"{.	c #F5BA4B",
"].	c #DB951D",
"^.	c #DC992A",
"/.	c #F5C167",
"(.	c #F9CC5A",
"_.	c #F9CB3C",
":.	c #F9CB30",
"<.	c #F9CC3C",
"[.	c #F9CD5A",
"}.	c #F5C267",
"|.	c #DD992A",
"1.	c #CE8E1E",
"2.	c #E9AF54",
"3.	c #F5C980",
"4.	c #F8D28D",
"5.	c #EAB054",
"6.	c #CF8F1F",
"7.	c #C18313",
"8.	c #C98B1D",
"                                ",
"          . + @ @ # $           ",
"        % & * = - * ; >         ",
"      , ' ) ! ~ ~ { ] ^ /       ",
"    ( _ : < [ } } | 1 : 2 3     ",
"    4 5 6 7 8 9 9 8 0 a 5 b     ",
"  c d e f g h i j h k l m n o   ",
"  p q r s t u v v w x y r z A   ",
"  B C D E F G H H I J K L M N   ",
"  O P Q R S T U U V W X Q Y Z   ",
"    `  ...+.@.#.$.%.&...*.=.    ",
"    -.;.>.,.'.).!.'.,.~.{.].    ",
"      ^./.(._.:.:.<.[.}.|.      ",
"        1.2.3.4.4.3.5.6.        ",
"            7.8.8.7.            ",
"                                "};
