/* XPM */
static char * logo_xpm[] = {
"32 32 133 2",
"  	c None",
". 	c #000000",
"+ 	c #8585CD",
"@ 	c #7D7DCD",
"# 	c #7474CD",
"$ 	c #6B6BCD",
"% 	c #47477B",
"& 	c #BBBBEC",
"* 	c #C7C7FE",
"= 	c #B4B4FE",
"- 	c #A6A6FE",
"; 	c #9999FE",
"> 	c #7A7AED",
", 	c #27277A",
"' 	c #373770",
") 	c #C1C1F7",
"! 	c #B4B4FF",
"~ 	c #9A9AFF",
"{ 	c #8C8CFF",
"] 	c #7E7EFF",
"^ 	c #6C6CF8",
"/ 	c #1C1C72",
"( 	c #353580",
"_ 	c #B0B0F7",
": 	c #9D9DFF",
"< 	c #7F7FFF",
"[ 	c #6868FF",
"} 	c #4E4EFE",
"| 	c #7878DD",
"1 	c #848476",
"2 	c #A3A35A",
"3 	c #5D5D25",
"4 	c #020101",
"5 	c #543030",
"6 	c #653636",
"7 	c #653333",
"8 	c #5A3277",
"9 	c #9797F7",
"0 	c #8282FF",
"a 	c #5757FF",
"b 	c #4040FF",
"c 	c #8181DA",
"d 	c #F2F2C4",
"e 	c #FCFCBF",
"f 	c #FCFCB0",
"g 	c #FCFCA3",
"h 	c #FBFB94",
"i 	c #D1D163",
"j 	c #070701",
"k 	c #7F4C4C",
"l 	c #EBBABA",
"m 	c #F5B8B8",
"n 	c #F5AAAA",
"o 	c #D189AB",
"p 	c #7E7EF6",
"q 	c #5F5FFF",
"r 	c #3636FF",
"s 	c #2C2CFF",
"t 	c #9A9AC6",
"u 	c #FFFFD0",
"v 	c #FFFFAC",
"w 	c #FFFF9A",
"x 	c #FFFF8C",
"y 	c #FFFF7E",
"z 	c #EAEA62",
"A 	c #AB6666",
"B 	c #FFD1D1",
"C 	c #FFAFAF",
"D 	c #FF9E9E",
"E 	c #F58B94",
"F 	c #7446CE",
"G 	c #3130EA",
"H 	c #1F1FEA",
"I 	c #1616EA",
"J 	c #9999B4",
"K 	c #FFFFBF",
"L 	c #FFFF92",
"M 	c #F7F766",
"N 	c #F1F14F",
"O 	c #DFDF3C",
"P 	c #A55555",
"Q 	c #FFC1C1",
"R 	c #FF9595",
"S 	c #FF8282",
"T 	c #FF6C6C",
"U 	c #FC545A",
"V 	c #E23E51",
"W 	c #C3C357",
"X 	c #FCFCAA",
"Y 	c #FDFD76",
"Z 	c #F4F455",
"` 	c #EFEF40",
" .	c #EFEF36",
"..	c #DDDD26",
"+.	c #0D0D00",
"@.	c #AA4040",
"#.	c #FFAEAE",
"$.	c #FF7B7B",
"%.	c #FF5C5C",
"&.	c #FF4343",
"*.	c #FF3939",
"=.	c #E92828",
"-.	c #C5C534",
";.	c #F4F48E",
">.	c #F0F04C",
",.	c #EFEF2C",
"'.	c #EFEF22",
").	c #DCDC15",
"!.	c #0C0C00",
"~.	c #D03737",
"{.	c #FF9191",
"].	c #FF4F4F",
"^.	c #FF2F2F",
"/.	c #FF2525",
"(.	c #E91717",
"_.	c #DCDC47",
":.	c #E3E32D",
"<.	c #E3E320",
"[.	c #E3E317",
"}.	c #E2E20D",
"|.	c #CDCD05",
"1.	c #060600",
"2.	c #F05757",
"3.	c #F93333",
"4.	c #F92424",
"5.	c #F91A1A",
"6.	c #F81010",
"7.	c #DB0606",
"8.	c #5B5B02",
"9.	c #525201",
"0.	c #565600",
"a.	c #6F0808",
"b.	c #750606",
"                                                                ",
"                        . .         . .                         ",
"                      . . .         . . .                       ",
"                    . . .             . . .                     ",
"                    . .                 . .                     ",
"        . .       . .                     . .       . .         ",
"        . .       . .                     . .       . .         ",
"        . .       . .                     . .       . .         ",
"        . .       . .                     . .       . .         ",
"        . .       . .                     . .       . .         ",
"        . .       . .       + @ # $       . .       . .         ",
"        . . .     . . . % & * = - ; > , . . .     . . .         ",
"          . . .     . . ' ) ! ~ { ] ^ / . .     . . .           ",
"            . . .       ( _ : < [ } | 1 2     3 . .             ",
"              . 4 5 6 7 8 9 0 a b c d e f g h i j               ",
"                k l m n o p q r s t u v w x y z                 ",
"                A B C D E F G H I J K L y M N O                 ",
"              . P Q R S T U V     W X Y Z `  ...+.              ",
"            . . @.#.$.%.&.*.=.    -.;.>. .,.'.).!..             ",
"          . . . ~.{.].*.^./.(.      _.:.<.[.}.|.1.. .           ",
"        . . .     2.3.4.5.6.7.          8.9.0.    . . .         ",
"        . .       a.b.                    . .       . .         ",
"        . .       . .                     . .       . .         ",
"        . .       . .                     . .       . .         ",
"        . .       . .                     . .       . .         ",
"        . .       . .                     . .       . .         ",
"        . .       . .                     . .       . .         ",
"                    . .                 . .                     ",
"                    . . .             . . .                     ",
"                      . . .         . . .                       ",
"                        . .         . .                         ",
"                                                                "};
