/* XPM */
static char * prefs_xpm[] = {
"16 16 125 2",
"  	c None",
". 	c #B48E56",
"+ 	c #D9C7B1",
"@ 	c #CBB397",
"# 	c #AE8B5D",
"$ 	c #D1B690",
"% 	c #EED299",
"& 	c #F9EEDB",
"* 	c #FBF6ED",
"= 	c #F9F1E3",
"- 	c #EDDBBC",
"; 	c #D6BB8D",
"> 	c #BC9150",
", 	c #B0864C",
"' 	c #E3CDA8",
") 	c #EED7AC",
"! 	c #ECC981",
"~ 	c #F4DFB5",
"{ 	c #F6E5C4",
"] 	c #F5E0BA",
"^ 	c #F3DCB0",
"/ 	c #F2D8A6",
"( 	c #EED095",
"_ 	c #BE9761",
": 	c #6E6981",
"< 	c #918DA0",
"[ 	c #908C9E",
"} 	c #806A67",
"| 	c #BC9962",
"1 	c #EDD4A6",
"2 	c #DBB97E",
"3 	c #B98C45",
"4 	c #E9C374",
"5 	c #EBC473",
"6 	c #F1D49C",
"7 	c #F0D294",
"8 	c #EFD08C",
"9 	c #EECE84",
"0 	c #EDCB7C",
"a 	c #C39C62",
"b 	c #A5A2AF",
"c 	c #E9E9F0",
"d 	c #D1C5BC",
"e 	c #D2AF74",
"f 	c #ECCD91",
"g 	c #C59C57",
"h 	c #BC8E40",
"i 	c #E5BA65",
"j 	c #E4B14C",
"k 	c #E8BB59",
"l 	c #ECC772",
"m 	c #EDC974",
"n 	c #ECC76D",
"o 	c #EBC565",
"p 	c #E9C05C",
"q 	c #AD834F",
"r 	c #EAEAF1",
"s 	c #A79689",
"t 	c #CEA761",
"u 	c #AF8A56",
"v 	c #A49A97",
"w 	c #AE823F",
"x 	c #BC8629",
"y 	c #E8BD61",
"z 	c #E6B85A",
"A 	c #E1AD40",
"B 	c #E2B049",
"C 	c #E2B249",
"D 	c #E2B345",
"E 	c #D4A237",
"F 	c #A5A2B0",
"G 	c #EDEDF3",
"H 	c #A9AAB9",
"I 	c #A29BA0",
"J 	c #B1B2C3",
"K 	c #ACAEC0",
"L 	c #93929D",
"M 	c #B18338",
"N 	c #D5A23E",
"O 	c #C18B2C",
"P 	c #DDAA4D",
"Q 	c #C68E31",
"R 	c #BB8124",
"S 	c #BB8023",
"T 	c #A06A10",
"U 	c #A6A3B0",
"V 	c #F1F1F6",
"W 	c #EFEFF5",
"X 	c #F0EFF6",
"Y 	c #F0EFF5",
"Z 	c #DEDEE3",
"` 	c #B3AAA3",
" .	c #A48562",
"..	c #BF8A30",
"+.	c #AD7B2A",
"@.	c #A7A4B0",
"#.	c #F4F3F7",
"$.	c #C5C5D5",
"%.	c #BFC0D1",
"&.	c #BFBFD1",
"*.	c #BCBCCE",
"=.	c #9F9EAA",
"-.	c #C6B8AC",
";.	c #998F94",
">.	c #A7A4B1",
",.	c #F7F7FA",
"'.	c #E3E3EA",
").	c #E1E1E9",
"!.	c #E2E3EA",
"~.	c #F6F6F9",
"{.	c #A8A5B1",
"].	c #FAFAFC",
"^.	c #E5E5EC",
"/.	c #A9A6B2",
"(.	c #FBFBFC",
"_.	c #CBCBD9",
":.	c #C5C5D4",
"<.	c #AAA8B3",
"[.	c #FDFDFE",
"}.	c #FEFEFE",
"|.	c #ABA8B3",
"1.	c #928E9E",
"2.	c #D6D5DB",
"3.	c #D7D6DC",
"4.	c #9490A0",
"                                ",
"                . + @ #         ",
"              $ % & * = - ; >   ",
"          , ' ) ! ~ { ] ^ / ( _ ",
": < [ } | 1 2 3 4 5 6 7 8 9 0 a ",
"b c d e f g h i j k l m n o p q ",
"b r s t u v w x y z A B C D E   ",
"F G H I J K L M N O P Q R S T   ",
"U V W W X Y Z `  ...+.          ",
"@.#.$.%.%.%.&.*.=.-.;.          ",
">.,.'.).).).).).!.~.>.          ",
"{.].^.!.!.!.!.!.^.]./.          ",
"{.(._.:.:.:.:.:._.(.<.          ",
"{.[.}.[.[.[.[.[.}.[.|.          ",
"1.2.3.3.3.3.3.3.3.2.4.          ",
"                                "};
