/* XPM */
static char * project_xpm[] = {
"22 22 189 2",
"  	c None",
". 	c #878984",
"+ 	c #F6F6F6",
"@ 	c #F5F5F5",
"# 	c #E1E0E0",
"$ 	c #FBFBFB",
"% 	c #F8F7F7",
"& 	c #F7F7F7",
"* 	c #F8F8F8",
"= 	c #E6E6E6",
"- 	c #E2E2E2",
"; 	c #E3E3E3",
"> 	c #F6F5F5",
", 	c #DFDFDF",
"' 	c #E1E1E1",
") 	c #F5F4F4",
"! 	c #ECEBEB",
"~ 	c #EAE9E9",
"{ 	c #EAEAEA",
"] 	c #F3F2F2",
"^ 	c #EBEAEA",
"/ 	c #E9E9E9",
"( 	c #F0EFEF",
"_ 	c #DFDEDE",
": 	c #DBDADA",
"< 	c #DBDBDB",
"[ 	c #EEEDED",
"} 	c #E4E4E4",
"| 	c #E3E2E2",
"1 	c #EBEBEB",
"2 	c #EEEEEE",
"3 	c #E2E1E1",
"4 	c #E7E6E6",
"5 	c #E8E7E7",
"6 	c #D9D8D8",
"7 	c #D5D5D5",
"8 	c #D6D5D5",
"9 	c #D6D6D6",
"0 	c #DAD9D9",
"a 	c #E9E8E8",
"b 	c #DCDBDB",
"c 	c #E6E5E5",
"d 	c #DDDCDC",
"e 	c #B1B0BF",
"f 	c #A0A0C2",
"g 	c #9E9EC8",
"h 	c #9292C6",
"i 	c #8686C6",
"j 	c #7979C5",
"k 	c #6363B0",
"l 	c #E1E0E3",
"m 	c #D9D9D9",
"n 	c #9292B3",
"o 	c #DFDFF6",
"p 	c #BEBEEF",
"q 	c #ADADEE",
"r 	c #9D9DEE",
"s 	c #8B8BEE",
"t 	c #6969D6",
"u 	c #A8A7C8",
"v 	c #D7D6D6",
"w 	c #E0DFDF",
"x 	c #D3D2D2",
"y 	c #D0CFCF",
"z 	c #D0D0D0",
"A 	c #8787B1",
"B 	c #D7D7F6",
"C 	c #ACACEF",
"D 	c #9999EE",
"E 	c #8484ED",
"F 	c #6A6AEA",
"G 	c #5151D6",
"H 	c #9F9FC4",
"I 	c #D5D4D4",
"J 	c #D1D0D0",
"K 	c #CECECE",
"L 	c #7777AE",
"M 	c #CDCDF5",
"N 	c #9999EF",
"O 	c #7C7CEC",
"P 	c #5B5BE6",
"Q 	c #6868C5",
"R 	c #ABABA6",
"S 	c #BCBC95",
"T 	c #C0C08B",
"U 	c #BEBE7E",
"V 	c #BDBD70",
"W 	c #9E9E4C",
"X 	c #BAAAAA",
"Y 	c #B69595",
"Z 	c #B58D8D",
"` 	c #B48585",
" .	c #6A5997",
"..	c #B0B0F1",
"+.	c #6E6EE9",
"@.	c #5454E7",
"#.	c #4747E8",
"$.	c #A6A6A7",
"%.	c #F6F6DD",
"&.	c #EFEFBB",
"*.	c #EEEEAC",
"=.	c #EEEE9C",
"-.	c #EEEE8A",
";.	c #C3C35B",
">.	c #C2A0A0",
",.	c #F4D8D8",
"'.	c #EFBCBC",
").	c #EEAEAE",
"!.	c #8A68A1",
"~.	c #8484EB",
"{.	c #5050E8",
"].	c #4343E9",
"^.	c #3939EC",
"/.	c #A7A79E",
"(.	c #F6F6D8",
"_.	c #EEEEA9",
":.	c #EEEE98",
"<.	c #EDED83",
"[.	c #EBEB6C",
"}.	c #C5C54B",
"|.	c #D4D3D3",
"1.	c #CCCCCB",
"2.	c #C69C9C",
"3.	c #F5D4D4",
"4.	c #EEABAB",
"5.	c #EE9A9A",
"6.	c #DE7F88",
"7.	c #80488F",
"8.	c #5C3595",
"9.	c #3C3CBE",
"0.	c #3838C2",
"a.	c #AAAA87",
"b.	c #F6F6CE",
"c.	c #EEEE95",
"d.	c #EBEB7A",
"e.	c #E6E65A",
"f.	c #E7E74D",
"g.	c #C2C235",
"h.	c #D2D1D1",
"i.	c #C58F8F",
"j.	c #F5C9C9",
"k.	c #EE9797",
"l.	c #EC7D7D",
"m.	c #E65D5D",
"n.	c #E74E4E",
"o.	c #BB3838",
"p.	c #D1D0CF",
"q.	c #B4B45E",
"r.	c #F3F3B6",
"s.	c #E9E96C",
"t.	c #E7E753",
"u.	c #E8E847",
"v.	c #EAEA3D",
"w.	c #C8C82B",
"x.	c #BE6F6F",
"y.	c #F3B5B5",
"z.	c #EA7272",
"A.	c #E75656",
"B.	c #E84949",
"C.	c #EA3F3F",
"D.	c #C02E2E",
"E.	c #B5B54D",
"F.	c #EFEF90",
"G.	c #E8E84D",
"H.	c #E9E943",
"I.	c #EBEB39",
"J.	c #EEEE31",
"K.	c #CDCD23",
"L.	c #BE5757",
"M.	c #F09595",
"N.	c #E74F4F",
"O.	c #E94444",
"P.	c #EB3A3A",
"Q.	c #ED3232",
"R.	c #C62626",
"S.	c #A8A874",
"T.	c #BABA3D",
"U.	c #C1C136",
"V.	c #C4C42F",
"W.	c #C8C826",
"X.	c #CBCB21",
"Y.	c #B7B71A",
"Z.	c #A13535",
"`.	c #C73F3F",
" +	c #CA3434",
".+	c #CD2E2E",
"++	c #D12828",
"@+	c #D22222",
"#+	c #AD1E1E",
"      . . . . . . . . . . . . . . . . .     ",
"      . + + + + + + + + @ @ @ @ @ @ # .     ",
"      . $ % & & & & & & * * * * * * # .     ",
"      . & = - - - - - - ; - - - - - # .     ",
"      . > ; , , , , , , ' ' ' ' ' ' # .     ",
"      . ) ! ~ { { { { { { { { { { { # .     ",
"      . ] ^ / ~ ~ ~ ~ ~ ~ / ~ ~ ~ ~ # .     ",
"      . ( _ : < < < < < < < < < < < # .     ",
"      . [ } - | | | | | | | - = 1 2 # .     ",
"      . ^ | # ' ' ' ' ' ' ' 3 4 ~ ! _ .     ",
"      . 5 6 7 8 8 8 8 8 8 8 9 0 # a b .     ",
"      . c _ d d d d e f g h i j k l 0 .     ",
"      . | : m m m m n o p q r s t u v .     ",
"      . w x y z z z A B C D E F G H I .     ",
"      . d J K K K K L M N O P Q R S T U V W ",
"      . : I X Y Z `  ...+.@.#.$.%.&.*.=.-.;.",
"      . v J >.,.'.).!.~.{.].^./.(._.:.<.[.}.",
"      . |.1.2.3.4.5.6.7.8.9.0.a.b.c.d.e.f.g.",
"      . h.J i.j.k.l.m.n.o.p.J q.r.s.t.u.v.w.",
"      . . . x.y.z.A.B.C.D.. . E.F.G.H.I.J.K.",
"            L.M.N.O.P.Q.R.    S.T.U.V.W.X.Y.",
"            Z.`. +.+++@+#+                  "};
