/* XPM */
static char * logo_xpm[] = {
"16 16 36 1",
" 	c None",
".	c #000000",
"+	c #ABABEE",
"@	c #9191EE",
"#	c #8F8FC8",
"$	c #9B9BFF",
"%	c #7373FF",
"&	c #6868B9",
"*	c #6E6E36",
"=	c #906C6C",
"-	c #BD8484",
";	c #9A7CCB",
">	c #6060FF",
",	c #6969EA",
"'	c #FCFCC1",
")	c #FEFEA0",
"!	c #EEEE79",
"~	c #D8A0A0",
"{	c #FF9A9A",
"]	c #E36893",
"^	c #892EC9",
"/	c #7D7DC1",
"(	c #FEFE9D",
"_	c #F6F662",
":	c #E6E63B",
"<	c #E58383",
"[	c #FF5B5B",
"}	c #FF3535",
"|	c #E82121",
"1	c #E9E95B",
"2	c #E8E828",
"3	c #DFDF15",
"4	c #C23E3E",
"5	c #CF2121",
"6	c #EF1313",
"7	c #3F3F01",
"                ",
"     ..  ..     ",
"     .    .     ",
"  .  .    .  .  ",
"  .  .    .  .  ",
"  .  . +@ .  .  ",
"   .  #$%&* .   ",
"    =-;>,')!    ",
"    ~{]^/(_:    ",
"   .<[}| 123.   ",
"  . 456   7  .  ",
"  .  .    .  .  ",
"  .  .    .  .  ",
"     .    .     ",
"     ..  ..     ",
"                "};
