/* XPM */
static char * scintilla_xpm[] = {
"22 22 377 2",
"  	c None",
". 	c #394357",
"+ 	c #445269",
"@ 	c #3B475D",
"# 	c #404D67",
"$ 	c #404F6A",
"% 	c #3A4865",
"& 	c #434E60",
"* 	c #566276",
"= 	c #69758A",
"- 	c #636F81",
"; 	c #495062",
"> 	c #556075",
", 	c #586682",
"' 	c #455370",
") 	c #445477",
"! 	c #374664",
"~ 	c #373F4B",
"{ 	c #5D697A",
"] 	c #6C737F",
"^ 	c #4C505C",
"/ 	c #9BA0AB",
"( 	c #4B5161",
"_ 	c #838A95",
": 	c #657083",
"< 	c #586376",
"[ 	c #5B6985",
"} 	c #4D5D7E",
"| 	c #46577A",
"1 	c #3E4F74",
"2 	c #313E5A",
"3 	c #464E5B",
"4 	c #545C68",
"5 	c #5D626B",
"6 	c #90939A",
"7 	c #5E616D",
"8 	c #9598A6",
"9 	c #606372",
"0 	c #818697",
"a 	c #707482",
"b 	c #667287",
"c 	c #65738E",
"d 	c #52607B",
"e 	c #57688E",
"f 	c #495B84",
"g 	c #3E4F77",
"h 	c #2E374F",
"i 	c #38404D",
"j 	c #566072",
"k 	c #838892",
"l 	c #676975",
"m 	c #717585",
"n 	c #9799A3",
"o 	c #4A4E5F",
"p 	c #B6B8C1",
"q 	c #474B5A",
"r 	c #828693",
"s 	c #757E89",
"t 	c #5D6B86",
"u 	c #5C6B8B",
"v 	c #4E5E7F",
"w 	c #5A6F9F",
"x 	c #465780",
"y 	c #445785",
"z 	c #2B3347",
"A 	c #56616F",
"B 	c #545861",
"C 	c #838694",
"D 	c #888DA0",
"E 	c #505566",
"F 	c #B0B3BC",
"G 	c #5E606B",
"H 	c #606370",
"I 	c #B4B5BA",
"J 	c #555868",
"K 	c #6C758A",
"L 	c #728196",
"M 	c #62749A",
"N 	c #516187",
"O 	c #4D5E83",
"P 	c #52689B",
"Q 	c #55699D",
"R 	c #3D4C71",
"S 	c #49566B",
"T 	c #6F7C8E",
"U 	c #575963",
"V 	c #7B8194",
"W 	c #9196A5",
"X 	c #7D8192",
"Y 	c #5C5F6C",
"Z 	c #CACAD2",
"` 	c #424452",
" .	c #6F7281",
"..	c #ADB2BA",
"+.	c #6C768C",
"@.	c #4E5879",
"#.	c #6C819E",
"$.	c #677FAE",
"%.	c #51638D",
"&.	c #44547A",
"*.	c #4C6191",
"=.	c #4C659D",
"-.	c #202531",
";.	c #505E71",
">.	c #7E899B",
",.	c #5B637C",
"'.	c #9195A3",
").	c #636A80",
"!.	c #B4B6C2",
"~.	c #454B61",
"{.	c #7F8291",
"].	c #CCCDD5",
"^.	c #313547",
"/.	c #646C88",
"(.	c #8E9EB0",
"_.	c #8195B8",
":.	c #454E6F",
"<.	c #48577A",
"[.	c #617DB4",
"}.	c #5D78AC",
"|.	c #52638F",
"1.	c #3B4B74",
"2.	c #425C8F",
"3.	c #47494C",
"4.	c #607286",
"5.	c #8B96A7",
"6.	c #4F5872",
"7.	c #A5AEC8",
"8.	c #3B445E",
"9.	c #A6A9B6",
"0.	c #9196A8",
"a.	c #39405A",
"b.	c #8E94A9",
"c.	c #CCD5E0",
"d.	c #3C4660",
"e.	c #4D5980",
"f.	c #6B7E9E",
"g.	c #8BAAE0",
"h.	c #515F86",
"i.	c #393F5A",
"j.	c #41557F",
"k.	c #6185CE",
"l.	c #3D517E",
"m.	c #505E86",
"n.	c #333E56",
"o.	c #3B434D",
"p.	c #70838F",
"q.	c #747D8B",
"r.	c #607094",
"s.	c #888D9B",
"t.	c #8F99AF",
"u.	c #404B67",
"v.	c #CED0D7",
"w.	c #7C87A1",
"x.	c #30394F",
"y.	c #8A9AAB",
"z.	c #B9D1EA",
"A.	c #59667E",
"B.	c #454F71",
"C.	c #4B5C7C",
"D.	c #7DA3E3",
"E.	c #6987C1",
"F.	c #535F87",
"G.	c #3F4A68",
"H.	c #415989",
"I.	c #7DA7D6",
"J.	c #4C5860",
"K.	c #475159",
"L.	c #888F99",
"M.	c #495263",
"N.	c #9CABBF",
"O.	c #5D6B89",
"P.	c #A8A8AC",
"Q.	c #63748D",
"R.	c #556584",
"S.	c #D0DCE5",
"T.	c #687C9A",
"U.	c #222939",
"V.	c #607191",
"W.	c #9BBCE5",
"X.	c #738CB1",
"Y.	c #525F77",
"Z.	c #364053",
"`.	c #6C8DC3",
" +	c #76A3E5",
".+	c #6A89B3",
"++	c #576D9D",
"@+	c #434B5A",
"#+	c #6B809D",
"$+	c #525D6C",
"%+	c #798795",
"&+	c #5C6776",
"*+	c #B5C3D2",
"=+	c #57677F",
"-+	c #8D98B1",
";+	c #A3A7AD",
">+	c #415075",
",+	c #576A90",
"'+	c #C1DFEE",
")+	c #7085A2",
"!+	c #323745",
"~+	c #57617B",
"{+	c #7D9FC9",
"]+	c #92BCE4",
"^+	c #6C7E95",
"/+	c #2A2E3B",
"(+	c #344254",
"_+	c #9FBACA",
":+	c #9DC1DA",
"<+	c #4C5D79",
"[+	c #191B21",
"}+	c #4E5874",
"|+	c #485162",
"1+	c #8EA0B7",
"2+	c #646F80",
"3+	c #A5ADC0",
"4+	c #374A75",
"5+	c #AEB8CD",
"6+	c #959DAF",
"7+	c #323D5E",
"8+	c #536182",
"9+	c #D0E0E6",
"0+	c #9FAEBB",
"a+	c #5A5F70",
"b+	c #505361",
"c+	c #8E9BA6",
"d+	c #B8D7EF",
"e+	c #91B0DA",
"f+	c #5A6D99",
"g+	c #4B5874",
"h+	c #516073",
"i+	c #586E9C",
"j+	c #4F6394",
"k+	c #33394C",
"l+	c #5A6794",
"m+	c #636A84",
"n+	c #475782",
"o+	c #7A85A2",
"p+	c #78829D",
"q+	c #3A496F",
"r+	c #A8B8D1",
"s+	c #8C9AC0",
"t+	c #3B415D",
"u+	c #414963",
"v+	c #9DB4D0",
"w+	c #8CA3D1",
"x+	c #6F7998",
"y+	c #444856",
"z+	c #5E667D",
"A+	c #8299CD",
"B+	c #6A87CC",
"C+	c #5970A9",
"D+	c #49587B",
"E+	c #242A3A",
"F+	c #151516",
"G+	c #465074",
"H+	c #3C415A",
"I+	c #6A739B",
"J+	c #49557C",
"K+	c #8890BA",
"L+	c #57618F",
"M+	c #34426E",
"N+	c #818CB7",
"O+	c #8793C3",
"P+	c #4F556E",
"Q+	c #4B4D5D",
"R+	c #687192",
"S+	c #7387C3",
"T+	c #6878A6",
"U+	c #4D5772",
"V+	c #434A5C",
"W+	c #414B66",
"X+	c #4A5C8C",
"Y+	c #5367A1",
"Z+	c #43578C",
"`+	c #363D55",
" @	c #484C63",
".@	c #454658",
"+@	c #5A6594",
"@@	c #4E5E92",
"#@	c #787DA6",
"$@	c #5A5F85",
"%@	c #323955",
"&@	c #687299",
"*@	c #767FA7",
"=@	c #646986",
"-@	c #575966",
";@	c #4F515D",
">@	c #5F6C96",
",@	c #57689B",
"'@	c #3A486F",
")@	c #364162",
"!@	c #3D4869",
"~@	c #383E51",
"{@	c #242936",
"]@	c #393E53",
"^@	c #3D4257",
"/@	c #586594",
"(@	c #6479AA",
"_@	c #475479",
":@	c #6772A8",
"<@	c #5D638B",
"[@	c #414962",
"}@	c #515A7B",
"|@	c #5D668A",
"1@	c #575E7B",
"2@	c #5A6078",
"3@	c #51566D",
"4@	c #414860",
"5@	c #434E6D",
"6@	c #394364",
"7@	c #2D3856",
"8@	c #293452",
"9@	c #303342",
"0@	c #3B4056",
"a@	c #424864",
"b@	c #5B698A",
"c@	c #63779B",
"d@	c #425381",
"e@	c #4E5A8C",
"f@	c #565C7D",
"g@	c #4E5674",
"h@	c #495373",
"i@	c #4B5472",
"j@	c #525C82",
"k@	c #4E577C",
"l@	c #454F73",
"m@	c #3A435C",
"n@	c #3A3F50",
"o@	c #292E3E",
"p@	c #232839",
"q@	c #313445",
"r@	c #373B51",
"s@	c #373B4F",
"t@	c #393F4E",
"u@	c #44537E",
"v@	c #3F4A74",
"w@	c #3C486F",
"x@	c #404A6A",
"y@	c #4D5575",
"z@	c #444B68",
"A@	c #404965",
"B@	c #444D6A",
"C@	c #343A4C",
"D@	c #2D3346",
"E@	c #31384F",
"F@	c #222634",
"G@	c #2A2D3C",
"H@	c #2C3144",
"I@	c #33394F",
"J@	c #3C4465",
"K@	c #3C425D",
"L@	c #3A3F56",
"M@	c #363E59",
"N@	c #333A52",
"O@	c #3A3F51",
"P@	c #333749",
"Q@	c #34394E",
"R@	c #2F354A",
"S@	c #262A3C",
"T@	c #1F222D",
"U@	c #252937",
"V@	c #272A38",
"W@	c #32384E",
"X@	c #2B2F40",
"Y@	c #32374D",
"Z@	c #2E3344",
"`@	c #282B39",
" #	c #30354A",
".#	c #262B3A",
"+#	c #191B20",
"@#	c #1B1E21",
"##	c #1F2127",
"$#	c #292D3B",
"%#	c #232736",
"&#	c #1B1D23",
"*#	c #1B1D21",
"                . + @ # $ %                 ",
"            & * = - ; > , ' ) !             ",
"        ~ { ] ^ / ( _ : < [ } | 1 2         ",
"      3 4 5 6 7 8 9 0 a b c d e f g h       ",
"    i j k l m n o p q r s t u v w x y z     ",
"    A B C D E F G H I J K L M N O P Q R     ",
"  S T U V W X Y Z `  ...+.@.#.$.%.&.*.=.-.  ",
"  ;.>.,.'.).!.~.{.].^./.(._.:.<.[.}.|.1.2.  ",
"3.4.5.6.7.8.9.0.a.b.c.d.e.f.g.h.i.j.k.l.m.n.",
"o.p.q.r.s.t.u.v.w.x.y.z.A.B.C.D.E.F.G.H.I.J.",
"K.L.M.N.O.P.Q.R.S.T.U.V.W.X.Y.Z.`. +.+++@+#+",
"$+%+&+*+=+-+;+>+,+'+)+!+~+{+]+^+/+(+_+:+<+[+",
"}+|+1+2+3+4+5+6+7+8+9+0+a+b+c+d+e+f+g+h+i+j+",
"k+l+m+n+o+p+q+r+s+t+u+v+w+x+y+z+A+B+C+D+E+F+",
"  G+H+I+J+K+L+M+N+O+P+Q+R+S+T+U+V+W+X+Y+Z+  ",
"  `+ @.@+@@@#@$@%@&@*@=@-@;@>@,@'@)@!@~@{@  ",
"    ]@^@/@(@_@:@<@[@}@|@1@2@3@4@5@6@7@8@    ",
"    9@0@a@b@c@d@e@f@g@h@i@j@k@l@m@n@o@p@    ",
"      q@r@s@t@u@v@w@x@y@z@A@B@C@D@E@F@      ",
"        G@H@I@J@K@L@M@N@O@P@Q@R@S@T@        ",
"            U@V@W@X@Y@Z@`@ #.#+#            ",
"                @###$#%#&#*#                "};
